<mxfile host="app.diagrams.net" modified="2020-10-05T23:39:44.033Z" agent="5.0 (X11)" etag="42z6n_4I1J6sTDYYtkQA" version="13.7.7" type="github">
  <diagram id="r-5ZSAhFAKlxZxa2PIAF" name="Page-1">
    <mxGraphModel dx="1185" dy="639" grid="1" gridSize="10" guides="1" tooltips="1" connect="1" arrows="1" fold="1" page="1" pageScale="1" pageWidth="827" pageHeight="1169" math="0" shadow="0">
      <root>
        <mxCell id="0" />
        <mxCell id="1" parent="0" />
        <mxCell id="tUfBQGnzbKp8h1ppGDwL-5" value="" style="rounded=0;whiteSpace=wrap;html=1;" vertex="1" parent="1">
          <mxGeometry x="80" y="80" width="200" height="600" as="geometry" />
        </mxCell>
        <mxCell id="tUfBQGnzbKp8h1ppGDwL-6" value="Harbor" style="text;html=1;strokeColor=none;fillColor=none;align=center;verticalAlign=middle;whiteSpace=wrap;rounded=0;" vertex="1" parent="1">
          <mxGeometry x="160" y="90" width="40" height="20" as="geometry" />
        </mxCell>
        <mxCell id="tUfBQGnzbKp8h1ppGDwL-7" value="" style="rounded=1;whiteSpace=wrap;html=1;" vertex="1" parent="1">
          <mxGeometry x="100" y="120" width="160" height="120" as="geometry" />
        </mxCell>
        <mxCell id="tUfBQGnzbKp8h1ppGDwL-8" value="" style="rounded=1;whiteSpace=wrap;html=1;" vertex="1" parent="1">
          <mxGeometry x="100" y="250" width="160" height="110" as="geometry" />
        </mxCell>
        <mxCell id="tUfBQGnzbKp8h1ppGDwL-9" value="" style="rounded=1;whiteSpace=wrap;html=1;" vertex="1" parent="1">
          <mxGeometry x="100" y="380" width="160" height="170" as="geometry" />
        </mxCell>
        <mxCell id="tUfBQGnzbKp8h1ppGDwL-10" value="INN" style="text;html=1;strokeColor=none;fillColor=none;align=center;verticalAlign=middle;whiteSpace=wrap;rounded=0;" vertex="1" parent="1">
          <mxGeometry x="160" y="120" width="40" height="20" as="geometry" />
        </mxCell>
        <mxCell id="tUfBQGnzbKp8h1ppGDwL-11" value="Docks" style="text;html=1;strokeColor=none;fillColor=none;align=center;verticalAlign=middle;whiteSpace=wrap;rounded=0;" vertex="1" parent="1">
          <mxGeometry x="160" y="250" width="40" height="20" as="geometry" />
        </mxCell>
        <mxCell id="tUfBQGnzbKp8h1ppGDwL-12" value="&lt;div class=&quot;tw-ta-container hide-focus-ring tw-nfl&quot; id=&quot;tw-target-text-container&quot; tabindex=&quot;0&quot;&gt;&lt;pre class=&quot;tw-data-text tw-text-large XcVN5d tw-ta&quot; id=&quot;tw-target-text&quot; style=&quot;text-align: left&quot; dir=&quot;ltr&quot;&gt;&lt;span lang=&quot;en&quot;&gt;flea market&lt;/span&gt;&lt;/pre&gt;&lt;/div&gt;" style="text;html=1;strokeColor=none;fillColor=none;align=center;verticalAlign=middle;whiteSpace=wrap;rounded=0;" vertex="1" parent="1">
          <mxGeometry x="160" y="380" width="40" height="20" as="geometry" />
        </mxCell>
        <mxCell id="tUfBQGnzbKp8h1ppGDwL-13" value="" style="rounded=1;whiteSpace=wrap;html=1;" vertex="1" parent="1">
          <mxGeometry x="100" y="560" width="160" height="100" as="geometry" />
        </mxCell>
        <mxCell id="tUfBQGnzbKp8h1ppGDwL-14" value="Spit Bucket" style="text;html=1;strokeColor=none;fillColor=none;align=center;verticalAlign=middle;whiteSpace=wrap;rounded=0;" vertex="1" parent="1">
          <mxGeometry x="145" y="565" width="70" height="20" as="geometry" />
        </mxCell>
        <mxCell id="tUfBQGnzbKp8h1ppGDwL-15" value="Crypto Pirates" style="rounded=1;whiteSpace=wrap;html=1;" vertex="1" parent="1">
          <mxGeometry x="120" y="150" width="120" height="30" as="geometry" />
        </mxCell>
        <mxCell id="tUfBQGnzbKp8h1ppGDwL-16" value="Public Pirates" style="rounded=1;whiteSpace=wrap;html=1;" vertex="1" parent="1">
          <mxGeometry x="120" y="190" width="120" height="30" as="geometry" />
        </mxCell>
        <mxCell id="tUfBQGnzbKp8h1ppGDwL-17" value="Connection with the Ships" style="rounded=1;whiteSpace=wrap;html=1;" vertex="1" parent="1">
          <mxGeometry x="120" y="275" width="120" height="60" as="geometry" />
        </mxCell>
        <mxCell id="tUfBQGnzbKp8h1ppGDwL-18" value="Contract negociators" style="rounded=1;whiteSpace=wrap;html=1;" vertex="1" parent="1">
          <mxGeometry x="120" y="410" width="120" height="30" as="geometry" />
        </mxCell>
        <mxCell id="tUfBQGnzbKp8h1ppGDwL-19" value="Information Negociators" style="rounded=1;whiteSpace=wrap;html=1;" vertex="1" parent="1">
          <mxGeometry x="120" y="490" width="120" height="40" as="geometry" />
        </mxCell>
        <mxCell id="tUfBQGnzbKp8h1ppGDwL-20" value="Pirate Negociators" style="rounded=1;whiteSpace=wrap;html=1;" vertex="1" parent="1">
          <mxGeometry x="120" y="450" width="120" height="30" as="geometry" />
        </mxCell>
        <mxCell id="tUfBQGnzbKp8h1ppGDwL-23" value="Public scrutiny of negotiators " style="rounded=1;whiteSpace=wrap;html=1;" vertex="1" parent="1">
          <mxGeometry x="120" y="590" width="120" height="50" as="geometry" />
        </mxCell>
      </root>
    </mxGraphModel>
  </diagram>
</mxfile>
